PathFileType	4	(X/Y/Z)	/Users/itak/Documents/Research/Walk-IL/dataset/trc/00253_00009.trc
DataRate	CameraRate	NumFrames	NumMarkers	Units	OrigDataRate	OrigDataStartFrame	OrigNumFrames
100.000000	100.000000	4	54	mm	100.000000	414	474
Frame#	Time	RPSI			LPSI			L3			STRN			T10			C7			CLAV			RBAK			LBAK			LSHO			LUPA			LAEL			LAOL			LWTS			LWPS			LFRA			LIFD			LHPS			LHTS			RSHO			RUPA			RAEL			RAOL			RWTS			RWPS			RFRA			RIFD			RHPS			RBHD			LFHD			RFHD			LBHD			LHIP			RHIP			RASI			LASI			LKNE			LTHI			LANK			LTIP			LTOE			LMT1			LMT5			LHEE			RKNE			RTHI			RANK			RTIP			RTOE			RMT1			RMT5			RHEE			RHTS			*53			
		X1	Y1	Z1	X2	Y2	Z2	X3	Y3	Z3	X4	Y4	Z4	X5	Y5	Z5	X6	Y6	Z6	X7	Y7	Z7	X8	Y8	Z8	X9	Y9	Z9	X10	Y10	Z10	X11	Y11	Z11	X12	Y12	Z12	X13	Y13	Z13	X14	Y14	Z14	X15	Y15	Z15	X16	Y16	Z16	X17	Y17	Z17	X18	Y18	Z18	X19	Y19	Z19	X20	Y20	Z20	X21	Y21	Z21	X22	Y22	Z22	X23	Y23	Z23	X24	Y24	Z24	X25	Y25	Z25	X26	Y26	Z26	X27	Y27	Z27	X28	Y28	Z28	X29	Y29	Z29	X30	Y30	Z30	X31	Y31	Z31	X32	Y32	Z32	X33	Y33	Z33	X34	Y34	Z34	X35	Y35	Z35	X36	Y36	Z36	X37	Y37	Z37	X38	Y38	Z38	X39	Y39	Z39	X40	Y40	Z40	X41	Y41	Z41	X42	Y42	Z42	X43	Y43	Z43	X44	Y44	Z44	X45	Y45	Z45	X46	Y46	Z46	X47	Y47	Z47	X48	Y48	Z48	X49	Y49	Z49	X50	Y50	Z50	X51	Y51	Z51	X52	Y52	Z52	X53	Y53	Z53	X54	Y54	Z54	

415	4.14	-27.00114822387695	1039.126098632812	473.8611755371094	92.48574066162109	1044.608276367188	459.7536010742188	45.32465362548828	1121.416137695312	453.9096984863281	74.05899047851562	1326.251342773438	688.4412231445312	36.29487991333008	1246.439208984375	444.3495788574219	44.64983367919922	1512.24169921875	483.9790344238281	67.29356384277344	1441.28564453125	653.56005859375	-34.11812973022461	1366.403442382812	431.6499938964844	151.5736846923828	1472.897705078125	449.7268371582031	218.3768310546875	1480.009643554688	529.5321655273438	292.8090209960938	1360.363525390625	499.2335815429688	331.5021362304688	1154.733642578125	530.67724609375	271.5233154296875	1127.562377929688	472.4374389648438	304.8037414550781	939.1113891601562	667.2752685546875	377.5050964355469	918.9246826171875	627.416015625	354.1323852539062	1052.7822265625	564.9086303710938	315.0433349609375	748.5888671875	691.849609375	379.7193603515625	834.0028686523438	657.2301025390625	336.5456237792969	843.6378784179688	709.1194458007812	-115.5273056030273	1477.133422851562	565.6362915039062	-183.3858337402344	1411.09423828125	558.4349365234375	-221.6920928955078	1129.492553710938	552.6241455078125	-134.3359832763672	1121.90625	514.9741821289062	-167.7696685791016	924.619140625	699.197265625	-235.9605407714844	906.83642578125	650.98388671875	-232.266357421875	1062.821166992188	583.2684326171875	-159.6683349609375	731.4193115234375	725.687255859375	-232.0037841796875	802.05712890625	696.36279296875	6.531947135925293	1677.358520507812	528.5785522460938	109.4378967285156	1719.560668945312	726.8565673828125	9.582402229309082	1716.836303710938	730.7105712890625	140.8664703369141	1686.329956054688	568.529541015625	244.7478332519531	990.456787109375	548.7673950195312	-121.2791519165039	1004.384033203125	585.1190185546875	-73.82542419433594	1053.60302734375	674.140869140625	205.8419342041016	1040.10546875	650.5634155273438	209.7660217285156	512.255859375	645.8343505859375	236.6021575927734	654.2520751953125	621.3928833007812	198.2080535888672	34.65446472167969	571.9469604492188	212.7591857910156	284.2183227539062	605.6113891601562	143.419677734375	43.32006454467773	788.135009765625	100.5464782714844	39.49676513671875	719.69921875	217.0236358642578	34.65738296508789	700.0819702148438	145.1140747070312	40.67289733886719	511.5155334472656	-59.72519683837891	516.6659545898438	645.6105346679688	-112.147346496582	782.739501953125	657.5453491210938	-36.41410064697266	36.90101623535156	551.8060913085938	-35.6037712097168	395.8751525878906	648.03759765625	54.54296493530273	43.18040466308594	749.04541015625	82.18755340576172	39.71333694458008	682.7887573242188	-36.43186187744141	36.88539505004883	665.9044799804688	6.449189186096191	36.09780883789062	478.0281677246094	-178.3209381103516	805.8107299804688	745.1148071289062	nan	nan	nan	
416	4.15	-25.95559692382812	1039.187255859375	475.6647338867188	93.5244140625	1044.7919921875	461.4537048339844	46.45196914672852	1121.276123046875	455.5823974609375	75.14060211181641	1326.546875	689.583740234375	37.44759750366211	1246.242065429688	445.561767578125	45.83573532104492	1512.1416015625	484.7242126464844	68.44915008544922	1441.504516601562	654.4972534179688	-32.92733383178711	1366.252685546875	432.6468505859375	152.7722930908203	1472.649658203125	450.4827575683594	219.4464111328125	1479.94873046875	530.3189697265625	294.1498107910156	1360.3642578125	500.5492858886719	333.3115844726562	1155.025390625	533.5932006835938	273.8175354003906	1127.23583984375	475.23046875	305.9786987304688	941.2339477539062	672.7244262695312	378.9680480957031	920.5138549804688	633.6324462890625	355.8675842285156	1053.489624023438	569.192138671875	316.3900756835938	751.265380859375	700.5761108398438	381.0590515136719	836.103271484375	664.874755859375	337.5003051757812	846.587158203125	716.3191528320312	-114.3873291015625	1477.171997070312	566.5084838867188	-182.2429504394531	1411.169067382812	559.1875	-220.4668579101562	1129.631103515625	552.49462890625	-132.9805450439453	1122.244262695312	514.9961547851562	-167.5997772216797	922.7255859375	696.8143310546875	-235.810791015625	905.9323120117188	648.224609375	-231.1078643798828	1062.785278320312	582.5709228515625	-159.9732360839844	729.0185546875	719.8181762695312	-232.1977844238281	800.3452758789062	691.7303466796875	7.85438060760498	1677.300903320312	529.0025634765625	110.7212066650391	1719.924926757812	727.2175903320312	10.84624767303467	1717.299560546875	731.0546875	142.1913604736328	1686.312622070312	568.98046875	245.9201049804688	990.7025146484375	550.2296142578125	-120.141242980957	1004.386840820312	586.904052734375	-72.73925018310547	1053.560180664062	675.9735717773438	207.0643310546875	1040.315063476562	652.07666015625	210.5914001464844	512.07421875	644.473388671875	237.6693115234375	654.3237915039062	621.1361083984375	198.2132415771484	34.62274932861328	571.9248657226562	213.1661682128906	284.21044921875	604.682373046875	143.4298553466797	43.32646179199219	788.1254272460938	100.5538864135742	39.49979782104492	719.6930541992188	217.0213623046875	34.65160751342773	700.0709838867188	145.1420288085938	40.61919784545898	511.4966430664062	-59.23805999755859	516.5984497070312	644.7950439453125	-111.2480239868164	782.62548828125	658.5224609375	-36.32345962524414	36.81021499633789	551.7123413085938	-35.14679718017578	395.8860473632812	647.3163452148438	54.5181770324707	43.23604202270508	748.9353637695312	82.26057434082031	39.74374008178711	682.7897338867188	-36.32517623901367	36.91500473022461	665.8497314453125	6.572624683380127	35.78446197509766	477.939697265625	-178.3845825195312	803.102783203125	740.56494140625	nan	nan	nan	
417	4.16	-24.92704582214355	1039.181640625	477.3763122558594	94.54795837402344	1044.931884765625	463.073486328125	47.53739547729492	1121.079467773438	457.1624145507812	76.22141265869141	1326.764282226562	690.6788330078125	38.56680297851562	1246.0009765625	446.72607421875	46.96543121337891	1512.0029296875	485.4595642089844	69.57913208007812	1441.656127929688	655.4054565429688	-31.76885604858398	1366.059448242188	433.6067199707031	153.9060668945312	1472.372192382812	451.1978759765625	220.4832916259766	1479.842407226562	531.0386352539062	295.4164428710938	1360.30859375	501.7273254394531	335.0307922363281	1155.262084960938	536.2527465820312	275.9617919921875	1126.86474609375	477.8533020019531	307.1455688476562	943.345947265625	677.9413452148438	380.3637390136719	922.0870971679688	639.5562744140625	357.5098876953125	1054.1572265625	573.2034912109375	317.7104797363281	754.03369140625	709.1656494140625	382.339599609375	838.2257080078125	672.2617797851562	338.4231262207031	849.5984497070312	723.2902221679688	-113.2867279052734	1477.124755859375	567.38525390625	-181.1346435546875	1411.159790039062	559.9610595703125	-219.3850555419922	1129.703735351562	552.430908203125	-131.8153991699219	1122.478515625	514.9891357421875	-167.4178924560547	920.8551635742188	694.50146484375	-235.7064971923828	905.0189819335938	645.6384887695312	-230.0831298828125	1062.696411132812	581.9644165039062	-160.2607269287109	726.7249755859375	714.0678100585938	-232.3984832763672	798.70166015625	687.31787109375	9.115475654602051	1677.192626953125	529.4334106445312	111.96484375	1720.249145507812	727.5693969726562	12.07919597625732	1717.70751953125	731.4090576171875	143.4695739746094	1686.2490234375	569.4146118164062	247.0310211181641	990.9151611328125	551.7089233398438	-118.9947891235352	1004.331726074219	588.5958862304688	-71.68285369873047	1053.435302734375	677.6815185546875	208.2384338378906	1040.456420898438	653.5404052734375	211.3983154296875	511.8714904785156	643.2351684570312	238.7314300537109	654.365966796875	620.982177734375	198.2218933105469	34.59136962890625	571.9006958007812	213.5798034667969	284.2003479003906	603.824951171875	143.4400329589844	43.33291625976562	788.1126098632812	100.5603942871094	39.50193786621094	719.68701171875	217.01904296875	34.64570236206055	700.06103515625	145.1717987060547	40.56710433959961	511.4772644042969	-58.73447799682617	516.4962158203125	644.11279296875	-110.3705596923828	782.4896850585938	659.4653930664062	-36.26905059814453	36.71584320068359	551.634033203125	-34.69372177124023	395.8581848144531	646.7000122070312	54.49795150756836	43.28878402709961	748.8192749023438	82.31719970703125	39.77284240722656	682.7877807617188	-36.24919509887695	36.93342208862305	665.7959594726562	6.634360790252686	35.48238372802734	477.8512573242188	-178.4157409667969	800.4998168945312	736.1173095703125	nan	nan	nan	
418	4.17	-23.90962600708008	1039.130004882812	478.9951477050781	95.56092071533203	1045.03955078125	464.6110534667969	48.58598709106445	1120.847534179688	458.6492004394531	77.30752563476562	1326.913696289062	691.7208251953125	39.652587890625	1245.736450195312	447.8446350097656	48.04257202148438	1511.843994140625	486.1871337890625	70.67942047119141	1441.753051757812	656.2841186523438	-30.6406135559082	1365.847412109375	434.5239868164062	154.9844207763672	1472.08740234375	451.8822937011719	221.4951324462891	1479.7138671875	531.70654296875	296.615966796875	1360.218872070312	502.7873229980469	336.6549682617188	1155.457397460938	538.6619873046875	277.9382019042969	1126.475830078125	480.306396484375	308.295166015625	945.451171875	682.9115600585938	381.6886596679688	923.6483154296875	645.1649169921875	359.0554504394531	1054.797729492188	576.93603515625	318.9723205566406	756.8828125	717.5496215820312	383.5579223632812	840.36865234375	679.3464965820312	339.3030090332031	852.6555786132812	729.99169921875	-112.2225189208984	1477.010986328125	568.2568969726562	-180.0622253417969	1411.0869140625	560.7503051757812	-218.4132843017578	1129.726928710938	552.4287719726562	-130.8103485107422	1122.62841796875	514.962158203125	-167.2399139404297	919.0364379882812	692.25439453125	-235.6371765136719	904.1196899414062	643.2317504882812	-229.1837310791016	1062.5712890625	581.4303588867188	-160.5867767333984	724.548583984375	708.4908447265625	-232.6291656494141	797.1578369140625	683.152587890625	10.31976413726807	1677.052001953125	529.8739013671875	113.1696929931641	1720.538696289062	727.9185180664062	13.27916431427002	1718.05224609375	731.7720336914062	144.7031555175781	1686.154541015625	569.8390502929688	248.0829162597656	991.1090698242188	553.208984375	-117.8405685424805	1004.235900878906	590.1912231445312	-70.64902496337891	1053.265869140625	679.269775390625	209.3615264892578	1040.544799804688	654.9540405273438	212.1694488525391	511.6585693359375	642.1090087890625	239.7738647460938	654.3804321289062	620.906005859375	198.2260131835938	34.56320571899414	571.8771362304688	213.982421875	284.1908264160156	603.0313110351562	143.4493713378906	43.33995056152344	788.0966796875	100.5642318725586	39.50203323364258	719.681884765625	217.0160369873047	34.64086151123047	700.052734375	145.1985168457031	40.51725387573242	511.4598083496094	-58.21416091918945	516.3753662109375	643.5888671875	-109.505744934082	782.351806640625	660.3963012695312	-36.24402236938477	36.63030624389648	551.5707397460938	-34.25719451904297	395.8122863769531	646.1905517578125	54.48520660400391	43.33449935913086	748.7105102539062	82.35968017578125	39.79427337646484	682.7836303710938	-36.19699096679688	36.94573974609375	665.7466430664062	6.654682636260986	35.20991897583008	477.7664794921875	-178.4485473632812	798.0242309570312	731.8085327148438	nan	nan	nan	
